<svg width="13" height="16" viewBox="0 0 13 16" fill="none" xmlns="http://www.w3.org/2000/svg">
<path d="M10.6515 8.00892C10.6373 7.41984 10.7881 6.83853 11.0869 6.33064C11.3856 5.82275 11.8205 5.40851 12.3422 5.1347C12.0137 4.67851 11.5838 4.30474 11.0864 4.04277C10.589 3.78079 10.0376 3.63775 9.47562 3.6249C8.27436 3.53022 6.96068 4.3257 6.48051 4.3257C5.9733 4.3257 4.8084 3.65871 3.89456 3.65871C2.00773 3.69337 0 5.16936 0 8.17123C0.0088558 9.10805 0.173702 10.0368 0.487772 10.9195C0.920595 12.1622 2.48451 15.208 4.11605 15.1573C4.96901 15.137 5.57175 14.5511 6.68171 14.5511C7.75785 14.5511 8.31663 15.1573 9.26766 15.1573C10.9127 15.1336 12.3279 12.3676 12.7404 11.119C12.1224 10.8669 11.5936 10.4363 11.2217 9.88213C10.8498 9.32798 10.6515 8.67548 10.6524 8.00808L10.6515 8.00892ZM8.73593 2.45154C9.03488 2.12219 9.26159 1.73393 9.40151 1.31172C9.54142 0.889512 9.59143 0.442695 9.54832 0C8.66173 0.0953005 7.84236 0.517191 7.24979 1.1835C6.94684 1.50745 6.71368 1.89019 6.56478 2.30797C6.41587 2.72576 6.35439 3.16968 6.38414 3.61221C6.84068 3.62191 7.29283 3.5215 7.70234 3.31946C8.11185 3.11743 8.46583 2.81972 8.73593 2.45154Z" fill="black"/>
</svg>
