<svg width="24" height="24" viewBox="0 0 24 24" fill="none" xmlns="http://www.w3.org/2000/svg">
<path d="M5.74443 22.16C5.73654 22.1684 5.72593 22.1731 5.71488 22.1731C5.70383 22.1731 5.69322 22.1684 5.68533 22.16C5.26314 21.6481 0.75 16.0593 0.75 12.3565C0.75 7.77291 3.49419 6.71233 5.71488 6.71233C7.75825 6.71233 10.3842 7.91125 10.3842 12.3565C10.3842 16.1792 6.13707 21.6573 5.74443 22.16Z" stroke="#EE6E6E" stroke-width="1.5"/>
<path d="M5.56711 13.5462C6.67465 13.5462 7.57248 12.5655 7.57248 11.3558C7.57248 10.1461 6.67465 9.1655 5.56711 9.1655C4.45957 9.1655 3.56174 10.1461 3.56174 11.3558C3.56174 12.5655 4.45957 13.5462 5.56711 13.5462Z" stroke="#EE6E6E" stroke-width="1.5"/>
<path d="M19.1023 12.919C19.0937 12.9278 19.0824 12.9327 19.0707 12.9327C19.0589 12.9327 19.0476 12.9278 19.039 12.919C18.6717 12.4579 15.1591 8.1003 15.1591 5.19984C15.1591 1.58463 17.3207 0.75 19.0728 0.75C20.6813 0.75 22.75 1.67225 22.75 5.19984C22.75 8.19253 19.4485 12.4764 19.1023 12.919Z" stroke="#EE6E6E" stroke-width="1.5"/>
<path d="M18.9546 6.60164C19.8289 6.60164 20.5377 5.82745 20.5377 4.87243C20.5377 3.91741 19.8289 3.14322 18.9546 3.14322C18.0802 3.14322 17.3714 3.91741 17.3714 4.87243C17.3714 5.82745 18.0802 6.60164 18.9546 6.60164Z" stroke="#EE6E6E" stroke-width="1.5"/>
<path d="M5.71487 22.1968C6.25432 22.3752 6.80449 22.5124 7.36139 22.6072" stroke="#EE6E6E" stroke-width="1.5"/>
<path d="M8.58995 22.741C9.76784 22.7963 11.0597 22.6119 11.9252 21.7818C14.3739 19.4347 13.1453 16.5942 14.7749 14.9987C15.3901 14.4093 16.0944 13.9412 16.8563 13.6153" stroke="#EE6E6E" stroke-width="1.5" stroke-dasharray="7.31 2.74"/>
<path d="M17.4347 13.394C17.9681 13.1964 18.5161 13.0498 19.0728 12.9559" stroke="#EE6E6E" stroke-width="1.5"/>
</svg>
