<svg width="20" height="17" viewBox="0 0 20 17" fill="none" xmlns="http://www.w3.org/2000/svg">
<path d="M0.750061 3.96429L6.19998 7.85711C7.48301 8.7735 8.12456 9.23175 8.81786 9.40982C9.43066 9.56711 10.0695 9.56711 10.6823 9.40982C11.3756 9.23175 12.0172 8.7735 13.3002 7.85711L18.7501 3.96429M3.95006 15.75H15.5501C16.6702 15.75 17.2303 15.75 17.6581 15.5164C18.0344 15.311 18.3404 14.9832 18.5321 14.58C18.7501 14.1216 18.7501 13.5215 18.7501 12.3214V4.17857C18.7501 2.97846 18.7501 2.3784 18.5321 1.92002C18.3404 1.51681 18.0344 1.189 17.6581 0.983561C17.2303 0.75 16.6702 0.75 15.5501 0.75H3.95006C2.82996 0.75 2.2699 0.75 1.84208 0.983561C1.46575 1.189 1.15979 1.51681 0.968051 1.92002C0.750061 2.3784 0.750061 2.97845 0.750061 4.17857V12.3214C0.750061 13.5215 0.750061 14.1216 0.968051 14.58C1.15979 14.9832 1.46575 15.311 1.84208 15.5164C2.2699 15.75 2.82995 15.75 3.95006 15.75Z" stroke="#FAA935" stroke-width="1.5" stroke-linecap="round" stroke-linejoin="round"/>
</svg>
