<svg width="16" height="16" viewBox="0 0 16 16" fill="none" xmlns="http://www.w3.org/2000/svg">
<path d="M15.1623 7.5792C15.162 6.13044 14.7465 4.71213 13.9651 3.49216C13.1837 2.2722 12.069 1.30168 10.7532 0.695509C9.43734 0.089335 7.97536 -0.127111 6.54031 0.0717967C5.10527 0.270705 3.75727 0.876638 2.6559 1.81786C1.55453 2.75908 0.745913 3.99617 0.325779 5.38268C-0.0943552 6.76918 -0.108414 8.24704 0.285272 9.64128C0.678958 11.0355 1.4639 12.2878 2.54717 13.2498C3.63043 14.2118 4.96667 14.8432 6.39767 15.0694V9.76932H4.47373V7.5792H6.39683V5.90966C6.35553 5.51962 6.40053 5.12528 6.52863 4.75457C6.65673 4.38387 6.8648 4.04587 7.13809 3.76454C7.41138 3.48322 7.7432 3.26544 8.11004 3.12665C8.47688 2.98786 8.86976 2.93145 9.26083 2.96143C9.83009 2.96953 10.398 3.01964 10.9599 3.11137V4.97634H10.0029C9.84017 4.95484 9.67466 4.97022 9.51864 5.02133C9.36262 5.07245 9.22009 5.15799 9.10159 5.27163C8.9831 5.38527 8.89168 5.5241 8.83409 5.67784C8.7765 5.83159 8.75422 5.99632 8.76889 6.15984V7.5792H10.8748L10.5378 9.76932H8.76889V15.066C10.5513 14.7833 12.1743 13.874 13.3463 12.5017C14.5182 11.1293 15.1622 9.38387 15.1623 7.5792Z" fill="#009EE2"/>
<path d="M10.5346 9.77259L10.8715 7.58247H8.76566V6.16059C8.75098 5.99707 8.77327 5.83234 8.83086 5.67859C8.88845 5.52485 8.97987 5.38602 9.09836 5.27238C9.21686 5.15874 9.35938 5.07319 9.5154 5.02207C9.67142 4.97096 9.83693 4.95559 9.9997 4.97709H10.9558V3.11211C10.3939 3.02038 9.82601 2.97026 9.25675 2.96217C8.86568 2.93219 8.4728 2.98861 8.10596 3.1274C7.73912 3.26619 7.4073 3.48396 7.13401 3.76529C6.86072 4.04662 6.65266 4.38461 6.52456 4.75532C6.39646 5.12602 6.35145 5.52036 6.39275 5.9104V7.57995H4.46967V9.77006H6.39275V15.0668C6.78419 15.1286 7.17995 15.1591 7.57625 15.1578C7.97275 15.157 8.36865 15.1266 8.7606 15.0668V9.77006L10.5346 9.77259Z" fill="white"/>
</svg>
