<svg width="15" height="16" viewBox="0 0 15 16" fill="none" xmlns="http://www.w3.org/2000/svg">
<path d="M14.8514 7.75148C14.8523 7.23541 14.8084 6.72025 14.7201 6.21179H7.57727V9.12954H11.67C11.586 9.59579 11.4084 10.0402 11.148 10.4359C10.8875 10.8316 10.5496 11.1705 10.1545 11.432V13.3253H12.5964C13.3415 12.6058 13.9272 11.7379 14.3156 10.7778C14.7041 9.81762 14.8866 8.78662 14.8514 7.75148Z" fill="#009EE2"/>
<path d="M7.57508 15.155C9.42103 15.2067 11.2172 14.5523 12.5973 13.3254L10.1554 11.4321C9.56741 11.8084 8.90142 12.0459 8.20797 12.1264C7.51451 12.207 6.81182 12.1285 6.15323 11.8969C5.49464 11.6653 4.89746 11.2867 4.40702 10.7899C3.91658 10.2931 3.54577 9.69107 3.32273 9.02954H0.806076V10.9814C1.43684 12.236 2.40381 13.2906 3.59908 14.0276C4.79435 14.7645 6.17089 15.1549 7.57508 15.155Z" fill="#34A853"/>
<path d="M3.3227 9.02681C3.00541 8.08599 3.00541 7.06706 3.3227 6.12624V4.17737H0.806045C0.276038 5.23317 3.05176e-05 6.39818 3.05176e-05 7.57955C3.05176e-05 8.76091 0.276038 9.92594 0.806045 10.9817L3.3227 9.02681Z" fill="#FBBC04"/>
<path d="M7.57508 2.99911C8.65544 2.98155 9.6994 3.38941 10.4817 4.13469L12.6468 1.97164C11.2744 0.683968 9.45683 -0.022426 7.57508 0.000543087C6.17057 0.000962922 4.79381 0.391745 3.59851 1.12926C2.40321 1.86678 1.43642 2.922 0.806076 4.17712L3.32273 6.12902C3.61567 5.22845 4.18336 4.44226 4.94605 3.88088C5.70875 3.3195 6.62814 3.01114 7.57508 2.99911Z" fill="#EA4335"/>
</svg>
