<svg width="18" height="15" viewBox="0 0 18 15" fill="none" xmlns="http://www.w3.org/2000/svg">
<path d="M8.99698 0C4.03733 0 2.16411e-06 2.46813 0 5.50008C-3.09158e-06 10.835 8.48977 14.8908 8.48977 14.8908C8.63469 14.9615 8.8146 15 9 15C9.1854 15 9.36531 14.9615 9.51023 14.8908C9.51023 14.8908 18 10.835 18 5.50008C18 2.46813 13.9566 0 8.99698 0ZM8.99698 1.00035C13.0725 1.00035 16.3636 3.00862 16.3636 5.50008C16.3637 9.86449 9.89895 13.3127 9.00302 13.7797C8.11136 13.315 1.63636 9.86619 1.63636 5.50008C1.63637 3.00862 4.92147 1.00035 8.99698 1.00035Z" fill="#FAA935"/>
<path d="M8.99698 3.00098C6.74788 3.00098 4.9091 4.12508 4.90909 5.50001C4.90907 6.87495 6.74787 8.00273 8.99698 8.00273C11.2461 8.00273 13.0909 6.87495 13.0909 5.50001C13.0909 4.12508 11.2461 3.00098 8.99698 3.00098ZM8.99698 4.00133C10.3619 4.00133 11.4545 4.66557 11.4545 5.50001C11.4546 6.33444 10.3619 7.00238 8.99698 7.00238C7.63201 7.00238 6.54544 6.33444 6.54545 5.50001C6.54546 4.66557 7.63202 4.00133 8.99698 4.00133Z" fill="#FAA935"/>
</svg>
