<svg width="174" height="104" viewBox="0 0 174 104" fill="none" xmlns="http://www.w3.org/2000/svg">
<path fill-rule="evenodd" clip-rule="evenodd" d="M121.026 63.8333V65.0993V75.379V76.2215V77.9076V94.829V100.523L118.971 103.314H124.716H133.519H141.162L139.475 100.523H139.423V78.3294L140.53 75.2726H136.577H137.841H139.37C139.739 70.7923 143.534 67.2079 148.067 67.2079C152.705 67.2079 156.448 70.7923 156.817 75.2726H158.346H159.664H155.658L156.765 78.3294V100.523H156.712L154.709 103.314H162.564H171.05H176.848L175.214 100.523V94.829V77.9076V76.2215V75.379V65.0993V63.8333V60.1972V59.7219L180.01 55.9795H180.168V55.8208V55.6105H175.214V51.9733V50.9734V50.1291V49.5498H121.026V50.1291V50.9734V51.9733V55.6105H116.019V55.7169V55.9795H116.282L121.026 59.7219V60.1972V63.8333Z" fill="#FAA935"/>
<path fill-rule="evenodd" clip-rule="evenodd" d="M119.497 71.7412V77.5387V78.014V78.4875H119.128V88.1861V88.8188V92.4572V93.0888V101.787V102.894V103.314H55.717V102.894V101.787V93.0888V92.4572V88.8188V88.1861V78.4869H55.0307V78.0134V77.5381V71.7406V70.9504H55.9267V65.5207V52.3417V51.4986V39.6915V38.846V14.6531H54.6624V13.0709H57.1922V10.6992H58.0887V9.96245H58.3519L59.3536 8.16996L60.4076 6.27172L61.4093 8.16996L62.4116 9.96245H62.6754V10.6992H77.6451V13.0709H80.2277V14.6531H78.8048V38.846V39.6915V40.3242H85.0247L86.027 32.7847L86.2379 30.7825V20.0294H84.5512V18.7104H86.2379V17.2869H87.6615V18.7104H89.3476V20.0294H87.6615V30.5187L87.9776 32.7841L88.9787 40.3236H95.9894V39.6909V38.8454V14.6525H94.7239V13.0703H97.2549V10.6986H111.909V9.96185H112.172L113.174 8.16936L114.175 6.27112L115.229 8.16936L116.178 9.96185H116.495V10.6986H117.708V13.0703H120.29V14.6525H118.868V38.8454V39.6909V51.498V52.3411V65.52V70.9498H119.499V71.7412H119.497ZM95.9876 42.6966H88.924V47.1252L89.3458 47.8085L91.7705 51.6055H95.9876V51.4992V42.6966ZM85.023 42.6966H78.803V51.4992V51.6055H82.1771L84.5494 47.8085L85.023 47.1252V42.6966ZM94.8801 62.0943C94.6698 58.299 91.7176 55.2951 87.9752 55.0319C91.7176 55.2945 94.6698 58.3519 94.8801 62.0943ZM59.7226 52.1325H75.0089V51.4998V40.5357H59.7226V51.4998V52.1325ZM65.204 42.3811C64.6776 42.3811 64.2029 42.6966 64.2029 43.0643V50.9193H66.2057V43.0643C66.2051 42.6966 65.7839 42.3811 65.204 42.3811ZM69.1573 42.3811C68.6304 42.3811 68.1556 42.6966 68.1556 43.0643V50.9193H70.1584V43.0643C70.1584 42.6966 69.7372 42.3811 69.1573 42.3811ZM62.9374 55.9801H60.8817V53.9244H62.9374V55.9801ZM73.7434 55.9801H71.6355V53.9244H73.7434V55.9801ZM105.265 42.3811C104.738 42.3811 104.264 42.6966 104.264 43.0643V50.9193H106.267V43.0643C106.267 42.6966 105.844 42.3811 105.265 42.3811ZM109.219 42.3811C108.691 42.3811 108.269 42.6966 108.269 43.0643V50.9193H110.22V43.0643C110.22 42.6966 109.799 42.3811 109.219 42.3811ZM102.999 55.9801H100.942V53.9244H102.999V55.9801ZM113.805 55.9801H111.749V53.9244H113.805V55.9801ZM59.5634 101.787H60.9863V87.8706C60.9863 83.6012 67.2591 80.122 67.2591 80.122C67.2591 80.122 73.5325 83.6012 73.5325 87.8706V101.787H75.5882V93.0888V92.4572V88.8188V88.1861V78.4869H59.5634V88.1855V88.8182V92.4567V93.0882V101.787ZM79.4364 101.787H81.0696V87.8706C81.0696 83.6012 87.343 80.122 87.343 80.122C87.343 80.122 93.6158 83.6012 93.6158 87.8706V101.787H95.4083V93.0888V92.4572V88.8188V88.1861V78.4869H79.4364V88.1855V88.8182V92.4567V93.0882V101.787ZM99.3082 101.787H101.101V87.8706C101.101 83.6012 107.373 80.122 107.373 80.122C107.373 80.122 113.646 83.6012 113.646 87.8706V101.787H115.227V93.0888V92.4572V88.8188V88.1861V78.4869H99.3088V88.1855V88.8182V92.4567V93.0882L99.3082 101.787Z" fill="#FAA935"/>
<path fill-rule="evenodd" clip-rule="evenodd" d="M10.0141 17.1317L10.8577 25.0378L38.8471 21.981L38.0047 14.0743L10.0141 17.1317ZM32.3117 89.294C17.7104 89.294 5.1119 95.0921 1.52588e-05 103.314H64.7298C59.5109 95.0921 46.9659 89.294 32.3117 89.294ZM44.751 67.9458L15.022 71.2147L15.1794 73.0066L44.9625 69.7383L44.751 67.9458ZM33.2605 1.58098L11.8594 3.90046L11.7014 2.32007L33.1031 0L33.2605 1.58098ZM38.5839 11.3853L8.80144 14.6007L9.01236 16.4455L38.742 13.1772L38.5839 11.3853ZM39.7966 22.6654L10.0669 25.9343L10.225 27.7803L40.0081 24.5114L39.7966 22.6654ZM41.0092 33.999L11.279 37.2673L11.4899 39.0592L41.2195 35.845L41.0092 33.999ZM42.2741 45.2804L12.4922 48.5475L12.7554 50.3922L42.485 47.1251L42.2741 45.2804ZM43.4867 56.6122L13.7571 59.8811L13.968 61.7258L43.697 58.4557L43.4867 56.6122ZM14.653 13.441L13.6513 4.37575L31.6261 2.42464L32.6278 11.4899L14.653 13.441ZM26.882 6.90497L27.1992 10.1204L30.3089 9.8049L29.9916 6.58889C29.8859 5.69354 29.0963 5.00733 28.2532 5.11249C27.4095 5.21824 26.7762 6.00903 26.882 6.90497ZM16.1817 8.11818L16.5507 11.3324L19.6603 10.9635L19.292 7.74922C19.185 6.85209 18.3954 6.21993 17.5524 6.32509C16.7087 6.37797 16.076 7.16757 16.1817 8.11818ZM21.5057 7.53712L21.8741 10.7531L24.9837 10.3842L24.6154 7.16817C24.5625 6.27281 23.7723 5.58659 22.8758 5.74641C22.0321 5.79929 21.4528 6.58889 21.5057 7.53712ZM35.1059 15.9732L35.6846 21.1896L37.5299 20.9793L36.9507 15.7611C36.8972 15.3392 36.476 15.0232 35.949 15.0748C35.4214 15.1277 35.053 15.4979 35.1059 15.9732ZM17.0248 64.2028L17.6575 69.4222L19.45 69.2107L18.8701 63.9924C18.8173 63.57 18.396 63.2551 17.8684 63.3068C17.3943 63.4126 17.0248 63.7821 17.0248 64.2028ZM19.608 63.8861L20.1873 69.159L22.0315 68.9469L21.4522 63.7292C21.3999 63.3068 20.9775 62.9913 20.4511 63.0442C19.9247 63.0965 19.5552 63.5189 19.608 63.8861ZM22.1907 63.6758L22.7706 68.8429L24.5631 68.6837L24.0355 63.4126C23.9826 62.9907 23.5091 62.7263 22.9815 62.7798C22.5074 62.8333 22.1384 63.2028 22.1907 63.6758ZM24.7205 63.3597L25.3016 68.5761L27.1458 68.3658L26.5659 63.1494C26.513 62.7258 26.0912 62.4626 25.5648 62.4626C25.0372 62.5689 24.6688 62.939 24.7205 63.3597ZM27.3044 63.0436L27.8837 68.3135L29.6762 68.1032L29.1498 62.8862C29.0969 62.4632 28.6222 62.1471 28.1475 62.1999C27.6205 62.2528 27.2515 62.6729 27.3044 63.0436ZM29.8342 62.8333L30.4141 67.9974L32.2594 67.8394L31.7318 62.5683C31.679 62.1465 31.2054 61.8839 30.6773 61.9362C30.1509 61.989 29.7813 62.3574 29.8342 62.8333ZM32.4175 62.516L32.9962 67.7343L34.8415 67.5239L34.2622 62.3574C34.21 61.8839 33.7352 61.6201 33.2611 61.6201C32.733 61.7258 32.3646 62.0942 32.4175 62.516ZM35.0001 62.2528L35.5271 67.4705L37.4248 67.2607L36.8443 62.0407C36.7915 61.6201 36.3173 61.3046 35.7903 61.3575C35.3162 61.4098 34.9467 61.8304 35.0001 62.2528ZM37.5299 61.989L38.1098 67.2079L39.9552 66.9975L39.3753 61.7781C39.3224 61.3575 38.8477 61.0414 38.3736 61.0949C37.8983 61.1471 37.4771 61.5149 37.5299 61.989ZM40.1132 61.6735L40.6396 66.8912L42.5367 66.6797L41.9574 61.5149C41.9051 61.0408 41.4827 60.7776 40.9563 60.7776C40.4293 60.884 40.0603 61.2511 40.1132 61.6735ZM15.8127 52.7646L16.3403 57.9828L18.2374 57.7725L17.6581 52.5525C17.6052 52.1324 17.1834 51.8686 16.6564 51.8686C16.1288 51.9738 15.7605 52.3422 15.8127 52.7646ZM18.3431 52.5014L18.9753 57.719L20.7678 57.5087L20.1879 52.2893C20.135 51.8686 19.7138 51.5532 19.1856 51.606C18.7121 51.6571 18.3431 52.079 18.3431 52.5014ZM20.9258 52.2364L21.5057 57.4564L23.3511 57.2455L22.7706 51.9732C22.7183 51.6054 22.2971 51.2894 21.7695 51.3423C21.2425 51.3945 20.873 51.7635 20.9258 52.2364ZM23.4562 51.9221L24.0878 57.1398L25.8803 56.9829L25.3539 51.7635C25.2487 51.2894 24.8269 51.0262 24.2999 51.0262C23.8246 51.1307 23.4562 51.4997 23.4562 51.9221ZM26.0383 51.6571L26.6194 56.8766L28.4635 56.6638L27.8831 51.4468C27.8302 51.0262 27.409 50.7089 26.8814 50.7606C26.355 50.8129 25.986 51.2365 26.0383 51.6571ZM28.6216 51.3945L29.2014 56.6122L30.9933 56.4007L30.4669 51.1307C30.4141 50.7606 29.9388 50.4445 29.4652 50.498C28.9377 50.5503 28.5687 50.9192 28.6216 51.3945ZM31.152 51.079L31.7318 56.2961L33.5772 56.1375L32.9962 50.9192C32.9962 50.4439 32.5232 50.1807 31.995 50.1807C31.4681 50.2871 31.1003 50.656 31.152 51.079ZM33.7353 50.8129L34.3151 56.0323L36.1076 55.8214L35.58 50.6025C35.5277 50.1807 35.0536 49.8646 34.5789 49.971C34.0513 49.9704 33.6818 50.3922 33.7353 50.8129ZM36.3173 50.5503L36.8443 55.7697L38.742 55.5582L38.1627 50.2871C38.1098 49.9181 37.6351 49.602 37.1087 49.6549C36.6334 49.7078 36.2128 50.0768 36.3173 50.5503ZM38.8477 50.2336L39.4276 55.4542L41.273 55.2944L40.6931 50.0768C40.6402 49.6015 40.1655 49.3388 39.6908 49.3388C39.2173 49.444 38.7943 49.813 38.8477 50.2336ZM14.5478 41.3264L15.1271 46.5447L16.9719 46.386L16.3926 41.1161C16.3403 40.6925 15.9185 40.4293 15.3915 40.4822C14.9162 40.5356 14.495 40.9046 14.5478 41.3264ZM17.1299 41.0614L17.6581 46.2809L19.5552 46.0699L18.9753 40.8511C18.9224 40.4293 18.4489 40.1132 17.9736 40.1667C17.4472 40.219 17.0783 40.6396 17.1299 41.0614ZM19.6603 40.7988L20.2396 46.0171L22.085 45.8067L21.5057 40.5885C21.4528 40.1667 21.031 39.8506 20.5046 39.9035C20.0293 39.9564 19.6603 40.3253 19.6603 40.7988ZM22.2436 40.4822L22.8229 45.7016L24.6682 45.5429L24.0872 40.3253C24.0349 39.85 23.6137 39.5874 23.0861 39.6397C22.5603 39.6926 22.1907 40.0603 22.2436 40.4822ZM24.774 40.219L25.4073 45.4372L27.1998 45.2269L26.6716 40.008C26.5665 39.5868 26.1447 39.2701 25.6177 39.323C25.1436 39.3765 24.774 39.7971 24.774 40.219ZM27.3573 39.9564L27.9365 45.174L29.7813 44.9625L29.202 39.746C29.1498 39.3236 28.7273 39.0064 28.2009 39.0598C27.6728 39.1121 27.3044 39.5339 27.3573 39.9564ZM29.9394 39.6926L30.5198 44.8567L32.3123 44.6993L31.7853 39.4823C31.7324 39.0058 31.2583 38.7432 30.7307 38.796C30.256 38.8471 29.8865 39.2179 29.9394 39.6926ZM32.4698 39.3765L33.0496 44.5929L34.8944 44.3826L34.3151 39.1662C34.3151 38.7425 33.8404 38.4259 33.3134 38.5322C32.7858 38.5839 32.4175 38.9529 32.4698 39.3765ZM35.053 39.1121L35.6323 44.3303L37.4248 44.12L36.8966 38.9006C36.8443 38.4799 36.3702 38.1639 35.8955 38.2168C35.3691 38.2678 35.0002 38.6903 35.053 39.1121ZM37.5828 38.8471L38.1627 44.0143L40.0603 43.8568L39.4805 38.6368C39.4276 38.1633 38.9541 37.9007 38.4265 37.9536C37.8983 38.0047 37.53 38.3742 37.5828 38.8471ZM13.3358 29.9405L13.8622 35.1047L15.7076 34.9473L15.1277 29.6773C15.1277 29.2537 14.6536 28.9911 14.1789 29.0422C13.6519 29.0957 13.2301 29.4664 13.3358 29.9405ZM15.8656 29.6251L16.4455 34.8415L18.2909 34.6318L17.7098 29.4664C17.6575 28.9917 17.2357 28.7285 16.7081 28.7285C16.234 28.8325 15.8128 29.2014 15.8656 29.6251ZM18.4489 29.309L18.9753 34.5789L20.8729 34.368L20.2402 29.1486C20.2402 28.7279 19.7667 28.4118 19.2926 28.5164C18.7644 28.5164 18.396 28.9388 18.4489 29.309ZM20.9781 29.0957L21.5592 34.3157L23.4033 34.1054L22.8235 28.8325C22.7706 28.4635 22.3494 28.1492 21.8224 28.2009C21.3477 28.2532 20.9781 28.6228 20.9781 29.0957ZM23.5614 28.7796L24.1407 33.999L25.986 33.7893L25.4067 28.6228C25.3539 28.1492 24.932 27.8854 24.405 27.8854C23.8775 27.99 23.5091 28.359 23.5614 28.7796ZM26.0912 28.5164L26.7239 33.7364L28.5164 33.5255L27.9888 28.3055C27.8837 27.8848 27.4624 27.5694 26.9343 27.6739C26.4607 27.6739 26.0912 28.0958 26.0912 28.5164ZM28.6751 28.2532L29.2549 33.4732L31.1003 33.2611L30.5192 28.0429C30.4669 27.6211 30.0445 27.3062 29.5175 27.3579C28.9899 27.4107 28.6216 27.7803 28.6751 28.2532ZM31.2571 27.9365L31.8364 33.1548L33.6289 32.9439L33.1025 27.7803C32.9956 27.3062 32.5743 27.04 32.0473 27.04C31.5732 27.1457 31.2049 27.5159 31.2571 27.9365ZM33.7869 27.6739L34.3674 32.8904L36.2128 32.6807L35.6323 27.463C35.5794 27.0394 35.1582 26.7239 34.6306 26.8297C34.1042 26.8297 33.7352 27.2503 33.7869 27.6739ZM36.3708 27.4107L36.9507 32.6278L38.7426 32.4174L38.2162 27.1992C38.1633 26.7774 37.688 26.4613 37.2139 26.5148C36.6869 26.5671 36.3173 26.936 36.3708 27.4107ZM12.0697 18.5018L12.6508 23.7218L14.495 23.5103L13.9151 18.2392C13.8622 17.8702 13.3887 17.5541 12.8611 17.6064C12.387 17.6593 12.0175 18.0288 12.0697 18.5018ZM14.653 18.1851L15.1794 23.4051L17.0248 23.2447L16.4455 18.0282C16.4455 17.5529 15.9708 17.288 15.4961 17.288C14.9691 17.3943 14.5479 17.7645 14.653 18.1851ZM17.1828 17.9225L17.7627 23.1395L19.608 22.9292L19.0282 17.7116C18.9753 17.288 18.5541 16.9725 18.0259 17.0782C17.4995 17.0782 17.1299 17.5019 17.1828 17.9225ZM19.7661 17.6593L20.2931 22.8763L22.1901 22.666L21.5586 17.4466C21.5586 17.0259 21.0833 16.7099 20.6091 16.7633C20.0816 16.8156 19.6603 17.1834 19.7661 17.6593ZM22.2971 17.3414L22.8764 22.5597L24.7205 22.4022L24.1407 17.1828C24.0878 16.7087 23.6666 16.4455 23.139 16.4455C22.6649 16.5518 22.2971 16.9196 22.2971 17.3414ZM24.8792 17.0782L25.459 22.2965L27.3044 22.0867L26.7245 16.8667C26.6716 16.4461 26.2504 16.13 25.7228 16.2358C25.1958 16.2358 24.8269 16.6564 24.8792 17.0782ZM27.4096 16.8156L27.9888 22.0339L29.8342 21.8235L29.2549 16.6041C29.202 16.1835 28.7802 15.8674 28.2532 15.9203C27.7785 15.9731 27.4096 16.3403 27.4096 16.8156ZM29.9916 16.4984L30.5721 21.7166L32.4175 21.5597L31.8364 16.3397C31.7841 15.8662 31.3629 15.6036 30.8347 15.6559C30.3089 15.7094 29.9394 16.0771 29.9916 16.4984ZM32.5226 16.2358L33.1554 21.454L34.9461 21.2431L34.4197 16.0243C34.3145 15.6042 33.8921 15.2863 33.3657 15.3909C32.891 15.3903 32.5226 15.8139 32.5226 16.2358ZM11.2267 28.4635L12.0697 36.3185L40.0603 33.2611L39.2173 25.4073L11.2267 28.4635ZM12.4393 39.7971L13.3358 47.6521L41.3258 44.5935L40.4299 36.7403L12.4393 39.7971ZM13.7042 51.1307L14.5478 58.9857L42.5367 55.9277L41.6936 48.0733L13.7042 51.1307ZM14.9162 62.4097L15.8122 70.3181L43.7493 67.2607L42.9068 59.3541L14.9162 62.4097ZM16.1817 73.7439L17.9742 90.4015C18.396 90.2939 18.8173 90.1899 19.2926 90.0313L17.9213 77.8546C17.8162 76.6444 18.8707 75.5892 20.3472 75.3789C21.8224 75.2197 23.0873 76.0622 23.1936 77.3282L24.4579 89.0308C24.932 88.9773 25.3539 88.9245 25.8286 88.8716L24.5637 77.1702C24.4585 75.9576 25.5125 74.8519 26.9354 74.6927C28.359 74.5329 29.6768 75.3783 29.7819 76.591L31.1009 88.5038C31.5221 88.4509 31.9434 88.4509 32.3123 88.4509H32.4704L31.1526 76.4311C31.0474 75.2197 32.102 74.1128 33.5243 73.9536C35.0007 73.7956 36.2656 74.6398 36.4237 75.8513L37.7937 88.7141C38.2684 88.767 38.7426 88.8181 39.2173 88.8716L37.7937 75.6938C37.6357 74.5329 38.7426 73.3743 40.1661 73.2163C41.589 73.0588 42.908 73.9013 43.0132 75.1656L44.6464 89.8727C45.174 89.9773 45.7539 90.1353 46.2809 90.2933L44.1723 70.6871L16.1817 73.7439Z" fill="#FAA935"/>
</svg>
