<svg width="23" height="23" viewBox="0 0 23 23" fill="none" xmlns="http://www.w3.org/2000/svg">
<path d="M8.925 3.59102C10.2475 3.59106 11.56 4.14123 12.5412 4.93379C13.5184 5.72317 14.1943 6.77654 14.1945 7.8V10.7014C14.1945 11.4116 14.0827 12.397 13.7668 13.3674C13.4733 14.2689 12.9991 15.1683 12.2619 15.8186L16.3908 18.1037C16.3929 18.1046 16.3957 18.1054 16.3986 18.1066C16.4079 18.1106 16.421 18.1167 16.4377 18.1242C16.4712 18.1394 16.5188 18.1618 16.5754 18.1906C16.6884 18.2482 16.8407 18.333 16.9934 18.4406C17.1451 18.5477 17.3028 18.6814 17.424 18.8381C17.5454 18.9951 17.6369 19.1849 17.6369 19.3996V21.1398C17.6369 21.8629 17.0492 22.4504 16.3264 22.4504H1.46016C0.737538 22.4502 0.149609 21.8636 0.149609 21.1398V19.3996C0.149609 19.1928 0.243236 19.0073 0.363476 18.8537C0.484147 18.6997 0.641151 18.5654 0.792187 18.4563C0.944191 18.3464 1.0956 18.258 1.2082 18.1975C1.26437 18.1673 1.31164 18.1443 1.34492 18.1281C1.36136 18.1202 1.37477 18.1138 1.38398 18.1096C1.38832 18.1076 1.39221 18.1058 1.39473 18.1047C1.39583 18.1042 1.39696 18.103 1.39766 18.1027L5.63496 15.8049C4.88814 15.1369 4.38714 14.2126 4.06855 13.3039C3.72596 12.3267 3.5891 11.3523 3.58906 10.7014V7.8C3.58927 6.775 4.2832 5.72137 5.27656 4.93282C6.27431 4.14079 7.60337 3.59102 8.925 3.59102ZM8.925 5.26582C7.99176 5.26582 7.07042 5.67371 6.38008 6.20723C6.0358 6.4733 5.75356 6.76688 5.55879 7.05C5.36195 7.3362 5.26392 7.59746 5.26387 7.80098V10.7014C5.26387 11.2285 5.38402 11.9965 5.64668 12.7453C5.91001 13.4959 6.30956 14.2079 6.85469 14.6447L6.99531 14.7727C7.3018 15.0886 7.45918 15.5252 7.41914 15.9699C7.37328 16.4781 7.07591 16.9295 6.62715 17.173L2.18965 19.5754L2.19062 19.5764C2.15386 19.5976 2.11663 19.6162 2.08125 19.632L2.08027 19.6311C2.00275 19.6665 1.90738 19.7247 1.82539 19.7795V20.7775H15.9621V19.7678C15.8885 19.7217 15.8049 19.6752 15.7355 19.6457L15.7336 19.6438L15.5959 19.5773L11.2668 17.1818V17.1809C10.8187 16.9355 10.5215 16.4811 10.4787 15.9719C10.436 15.462 10.6535 14.9635 11.0559 14.6467C11.6143 14.2077 11.9823 13.4947 12.2102 12.7434C12.4372 11.9945 12.5197 11.2263 12.5197 10.7014V7.80098C12.5197 7.58902 12.4258 7.3234 12.2385 7.03731C12.0526 6.75361 11.7817 6.46156 11.4484 6.19746C10.7808 5.66835 9.87685 5.26587 8.925 5.26582ZM13.6721 0.149612C14.9947 0.149612 16.3228 0.705816 17.3195 1.50313C18.3121 2.29717 19.0061 3.35622 19.0061 4.38106V7.28145C19.006 7.99354 18.8782 8.97947 18.5461 9.94942C18.2376 10.8502 17.7477 11.7483 17.01 12.3977L21.1984 14.6818L21.1994 14.6828C21.202 14.6839 21.2065 14.6857 21.2111 14.6877C21.2204 14.6917 21.2336 14.6977 21.2502 14.7053C21.2837 14.7205 21.3312 14.7428 21.3879 14.7717C21.5008 14.8293 21.6523 14.914 21.8049 15.0217C21.9568 15.1289 22.1151 15.2631 22.2365 15.4201C22.358 15.5772 22.4502 15.7669 22.4504 15.9816V17.7004C22.4504 18.4234 21.8625 19.0108 21.1398 19.0109H18.7434L18.7131 18.8996C18.5477 18.2847 18.4303 17.8866 18.0588 17.6066L17.7004 17.3371H20.7746V16.3488C20.7009 16.3026 20.6176 16.2554 20.548 16.2258L20.5451 16.2238C20.5048 16.2058 20.4515 16.1819 20.4084 16.1584L16.0158 13.7619C15.5661 13.5167 15.2696 13.0623 15.2268 12.552C15.184 12.0422 15.4006 11.5437 15.8039 11.2268C16.3633 10.7867 16.7468 10.072 16.9904 9.32051C17.2334 8.5712 17.3312 7.80396 17.3312 7.28145V4.38106C17.3312 4.17018 17.2337 3.90398 17.0402 3.61543C16.8485 3.32955 16.5701 3.03375 16.2287 2.7668C15.5445 2.23183 14.6237 1.82442 13.6721 1.82442C12.7116 1.82449 11.8279 2.1478 11.1291 2.6916L11.0676 2.73946L10.9914 2.71602C10.4756 2.55177 9.88035 2.55077 9.3 2.51485L8.99922 2.49629L9.19551 2.26778C10.2125 1.07934 11.9563 0.149737 13.6721 0.149612Z" fill="#EE6E6E" stroke="#EE6E6E" stroke-width="0.3"/>
</svg>
