<svg width="166" height="105" viewBox="0 0 166 105" fill="none" xmlns="http://www.w3.org/2000/svg">
<path fill-rule="evenodd" clip-rule="evenodd" d="M76.3528 5.03788V13.3583H77.4014V14.884H77.0519C106.778 33.7531 90.1081 39.6112 93.6047 43.3613C87.8939 43.2424 82.1805 43.2424 76.3528 43.3613H58.863C61.0785 39.2586 43.8266 33.868 74.6025 14.884H74.2516V13.3583H75.3029V5.50686C75.0703 5.50686 74.8377 5.50686 74.6025 5.50686C73.32 5.50686 72.1558 4.68652 71.688 3.39732C72.2714 3.98512 72.9718 4.21764 73.7878 4.21764C75.5355 4.21764 77.0519 2.8122 77.0519 1.05276C77.0519 0.698755 76.9349 0.232479 76.8193 0C77.517 0.58384 77.8666 1.40277 77.8666 2.22701C77.8666 3.39733 77.2831 4.4514 76.3528 5.03788ZM18.2936 50.6263C18.6418 49.9249 15.8456 49.1006 20.9729 45.9384C25.8703 49.1006 23.1897 50.0424 23.7718 50.6263C21.9059 50.6263 20.1595 50.6263 18.2936 50.6263ZM18.061 56.0169H23.6549V52.967H18.061V56.0169ZM19.1096 55.3155H20.1596V53.5534H19.1096V55.3155ZM21.6733 55.3155H22.6063V53.5534H21.6733V55.3155ZM20.3922 55.3155H21.3238V53.5534H20.3922V55.3155ZM17.3594 52.6182H24.4735V52.033H17.3594V52.6182ZM17.3594 51.5654H24.4735V50.9776H17.3594V51.5654ZM17.3594 56.9521H24.4735V56.4845H17.3594V56.9521ZM17.3594 57.6562H24.4735V57.1886H17.3594V57.6562ZM17.9441 57.7737H23.7718V72.3076H17.9441V57.7737ZM23.7718 73.2468V85.7862H17.9441V73.2468H23.7718ZM23.7718 86.7213V94.4592H30.6495V58.598L42.1919 56.2521V94.4605H42.6571V49.9262H44.1748V49.4547H57.6988V45.3519H94.0725V48.7519V49.4533H108.06V49.9249H109.227V94.4592H109.926V55.6642L121.118 58.8318V94.4592H128.696V86.7213H134.408V94.4592H144.784V81.9185H154.112V94.4592H166V97.6201H-14V94.4592H-1.75851V81.9185H7.68413V94.4592H17.9441V86.7213H23.7718ZM7.21767 23.2003C6.63424 22.1489 11.1821 20.8611 2.90368 15.8231C-5.13951 20.7422 -0.709895 22.2651 -1.64286 23.2003C1.27166 23.2003 4.30315 23.2003 7.21767 23.2003ZM7.45287 31.991H-1.52592V27.0666H7.45287V31.991ZM5.81823 30.9382H4.30313V28.126H5.81823V30.9382ZM1.62121 30.9382H0.10611V28.126H1.62121V30.9382ZM3.72102 30.9382H2.20464V28.126H3.72102V30.9382ZM8.84838 26.8355H-2.8084V25.5476H8.84838V26.8355ZM8.84838 24.9624H-2.8084V23.7921H8.84838V24.9624ZM8.84838 33.5166H-2.8084V32.3463H8.84838V33.5166ZM8.84838 34.6883H-2.8084V33.8679H8.84838V34.6883ZM166 105H-14V98.6756H166V105ZM7.68545 34.9234H-1.75719V58.4764H7.68545V34.9234ZM145.136 23.2003C145.834 22.1489 141.171 20.8611 149.565 15.8231C157.606 20.7422 153.178 22.2651 154.112 23.2003C151.082 23.2003 148.165 23.2003 145.136 23.2003ZM153.996 31.991V27.0666H155.279V25.5476H143.618V27.0666H144.902V31.991H143.618V33.399V33.5166V34.9221H144.784V58.4751H154.112V34.9221H155.279V33.5166V33.399V31.991H153.996ZM146.651 30.9382H148.165V28.126H146.651V30.9382ZM150.732 30.9382H152.362V28.126H150.732V30.9382ZM148.747 30.9382H150.266V28.126H148.747V30.9382ZM143.618 25.3112H155.279V23.7921H143.618V25.3112ZM154.112 60.0034V80.274H144.784V60.0034H154.112ZM59.9143 94.4592H91.974V51.9155H59.9143V94.4592ZM134.177 50.6263C133.827 49.9249 136.623 49.1006 131.496 45.9384C126.482 49.1006 129.279 50.0424 128.699 50.6263C130.561 50.6263 132.31 50.6263 134.177 50.6263ZM134.409 56.0169H128.814V52.967H134.409V56.0169ZM133.242 55.3155H132.31V53.5534H133.242V55.3155ZM130.794 55.3155H129.864V53.5534H130.794V55.3155ZM131.961 55.3155H131.028V53.5534H131.961V55.3155ZM135.107 52.7357H127.998V52.033H135.107V52.7357ZM135.107 51.5654H127.998V50.9776H135.107V51.5654ZM135.107 56.9521H127.998V56.3682H135.107V56.9521ZM135.107 57.7737H134.409V72.3076H128.697V57.7737H127.998V57.1898H135.107V57.7737ZM128.697 73.2468V85.7862H134.409V73.2468H128.697ZM-1.75719 60.0034V80.274H7.68545V60.0034H-1.75719ZM39.0448 82.2686V90.9403L33.1015 91.0579V82.9713C33.1015 81.4483 35.8977 78.9861 36.0146 78.9861C36.1303 78.9861 39.0448 80.7456 39.0448 82.2686ZM39.0448 67.7373V76.2928L33.1015 76.9955V68.4387C33.1015 66.7954 35.8977 64.3373 36.0146 64.3373C36.1303 64.2197 39.0448 65.9779 39.0448 67.7373ZM113.307 82.2686V90.9403L119.253 91.0579V82.9713C119.253 81.4483 116.34 78.9861 116.224 78.9861C116.106 78.9861 113.307 80.7456 113.307 82.2686ZM113.307 67.7373V76.2928L119.253 76.9955V68.4387C119.253 66.7954 116.34 64.3373 116.224 64.3373C116.106 64.2197 113.307 65.9779 113.307 67.7373ZM95.8188 48.7519C96.5219 47.4627 90.9228 45.9397 101.184 39.7262H101.068H100.719V39.2585H101.068V37.1491C100.953 37.1491 100.835 37.1491 100.719 37.1491C100.368 37.1491 99.9016 36.7977 99.7846 36.4437C99.9016 36.5613 100.251 36.6789 100.488 36.6789C101.068 36.6789 101.534 36.2113 101.534 35.7397C101.534 35.6261 101.534 35.5085 101.419 35.391C101.652 35.5085 101.767 35.7397 101.767 36.0924C101.767 36.4437 101.652 36.6776 101.419 36.9166V39.2573H101.652V39.7249H101.419H101.185C110.978 45.7059 105.849 47.579 106.781 48.7506L95.8188 48.7519ZM78.9165 69.6103V76.2928H85.6798V69.3778C85.6798 65.394 76.4697 60.0034 76.0019 60.0034C75.5355 60.0034 66.3254 65.394 66.3254 69.3778V76.2928H72.9718V69.6103C72.9718 68.4387 75.7694 66.7955 76.0019 66.7955C76.1163 66.7968 78.9165 68.44 78.9165 69.6103ZM78.9165 84.4916V91.0579H72.9705V84.4916C72.9705 83.2024 75.7681 81.5659 76.0007 81.5659C76.1163 81.5659 78.9165 83.2038 78.9165 84.4916ZM85.6798 78.6374H66.3254V91.0579H63.5291V55.4331H88.3604V91.0579H85.6798V78.6374ZM48.1392 71.1334H50.4716V75.5861H48.1392V71.1334ZM48.1392 86.6025H50.4716V91.0579H48.1392V86.6025ZM101.649 86.6025H103.98V91.0579H101.649V86.6025ZM101.649 71.1334H103.98V75.5861H101.649V71.1334ZM46.0407 52.2656H48.1392V55.4331H46.0407V52.2656ZM104.331 52.2656H106.545V55.4331H104.331V52.2656ZM100.833 52.2656H102.932V55.4331H100.833V52.2656ZM97.2183 52.2656H99.3181V55.4331H97.2183V52.2656ZM53.2679 52.2656H55.3677V55.4331H53.2679V52.2656ZM49.6543 52.2656H51.7528V55.4331H49.6543V52.2656ZM98.5034 78.2834H101.765C101.067 78.6374 100.367 79.2213 100.017 79.4538C99.3181 80.0389 98.3865 81.0983 98.3865 82.151V91.5268H107.364V82.151C107.364 81.0983 106.314 80.0389 105.614 79.4538C105.381 79.2213 104.564 78.6374 103.865 78.2834H107.364V77.3482H98.5034V78.2834ZM44.8739 62.3441H48.8383C48.1392 62.6981 46.8567 63.7521 46.5072 63.9872C45.8055 64.5737 44.7569 65.6252 44.7569 66.6819V76.0551H53.7344V66.6819C53.7344 65.6252 52.6858 64.5737 51.9854 63.9872C51.6359 63.6345 50.4716 62.6967 49.6543 62.3441H53.7357V61.4089H44.8752V62.3441H44.8739ZM44.8739 78.2834H48.2549C47.5545 78.6374 46.7398 79.2213 46.5072 79.4538C45.8055 80.0389 44.7569 81.0983 44.7569 82.151V91.5268H53.7344V82.151C53.7344 81.0983 52.8027 80.0389 51.9854 79.4538C51.7528 79.2213 51.0537 78.6374 50.3547 78.2834H53.7357V77.3482H44.8752V78.2834H44.8739ZM98.2695 62.3441H102.467C101.649 62.6981 100.367 63.6345 100.133 63.9872C99.3181 64.5737 98.3865 65.6252 98.3865 66.6819V76.0551H107.364V66.6819C107.364 65.6252 106.314 64.5737 105.614 63.9872C105.264 63.7521 103.982 62.6967 103.283 62.3441H107.013V61.4089H98.2695V62.3441ZM51.1681 35.391C51.4033 35.5085 51.5189 35.7397 51.5189 36.0924C51.5189 36.4437 51.4033 36.6776 51.1681 36.9166V39.2573H51.5189V39.7249H51.1681H50.9355H50.8198H50.4703V39.2573H50.8198V37.1478C50.7029 37.1478 50.586 37.1478 50.4703 37.1478C50.1195 37.1478 49.7699 36.7964 49.536 36.4424C49.7713 36.56 50.0025 36.6775 50.2364 36.6775C50.8198 36.6775 51.285 36.2099 51.285 35.7384C51.2863 35.6261 51.2863 35.5085 51.1681 35.391ZM50.9368 39.7249C60.729 45.7059 55.7173 47.579 56.532 48.7506H45.5729C46.3903 47.4627 40.6769 45.9397 50.9368 39.7249Z" fill="#FAA935"/>
</svg>
