<svg width="30" height="30" viewBox="0 0 30 30" fill="none" xmlns="http://www.w3.org/2000/svg">
<path d="M10.228 18.8198C10.228 19.082 10.3189 19.3038 10.5007 19.4853C10.6825 19.6668 10.9097 19.7626 11.1824 19.7727H13.0912C13.3538 19.7727 13.581 19.6769 13.7729 19.4853C13.9648 19.2937 14.0557 19.0719 14.0456 18.8198V11.181C14.0456 10.9188 13.9547 10.6919 13.7729 10.5003C13.5911 10.3087 13.3639 10.2179 13.0912 10.228H11.1824C10.9198 10.228 10.6926 10.3188 10.5007 10.5003C10.3088 10.6818 10.2179 10.9087 10.228 11.181V18.8198ZM15.9544 18.8198C15.9544 19.082 16.0503 19.3038 16.2422 19.4853C16.4341 19.6668 16.6563 19.7626 16.9088 19.7727H18.8176C19.0802 19.7727 19.3074 19.6769 19.4993 19.4853C19.6912 19.2937 19.7821 19.0719 19.772 18.8198V11.181C19.772 10.9188 19.6811 10.6919 19.4993 10.5003C19.3175 10.3087 19.0903 10.2179 18.8176 10.228H16.9088C16.6462 10.228 16.424 10.3188 16.2422 10.5003C16.0604 10.6818 15.9645 10.9087 15.9544 11.181V18.8198Z" fill="#F5F5F7" fill-opacity="0.6"/>
<circle cx="15" cy="15" r="14" stroke="white" stroke-width="2"/>
</svg>
