<svg width="17" height="17" viewBox="0 0 17 17" fill="none" xmlns="http://www.w3.org/2000/svg">
<path d="M5.58169 0.678174C5.58169 0.678174 5.37592 0.106716 4.92188 0.0266559C4.47504 -0.0521331 4.21551 0.0606483 4.04185 0.139417C3.86819 0.218186 0.995462 1.34902 0.995462 1.34902C0.995462 1.34902 0.15488 1.7069 0.0497413 2.64033C-0.0644066 3.57216 -0.0537729 4.92894 0.881101 6.98109C1.80768 9.02763 4.44076 12.3693 6.2425 13.6985C6.2425 13.6985 7.88772 15.0672 9.51543 15.7925C9.98953 15.9958 10.9521 16.3213 11.1827 16.362C11.4169 16.4033 11.8304 16.4762 12.3508 16.3014C12.8797 16.1254 15.8749 14.9794 15.8749 14.9794C15.8749 14.9794 16.6167 14.6498 15.9379 13.995C15.2556 13.3395 13.1097 11.771 12.6605 11.3788C12.2112 10.9818 11.4702 10.991 11.1235 11.1452C10.7774 11.3009 10.1642 11.5493 10.089 11.581C9.97788 11.621 9.66828 11.7596 9.37484 11.6116C9.00074 11.4258 7.4982 10.4859 6.26795 8.69182C5.04647 6.90068 4.9706 6.3722 4.84327 5.79311C4.8196 5.70665 4.83442 5.6196 4.88532 5.54603C4.93621 5.47246 5.02022 5.41668 5.12375 5.3877C5.36754 5.31161 6.28014 4.94565 6.28014 4.94565C6.28014 4.94565 6.88158 4.64807 6.7404 4.14755C6.59922 3.64702 5.58169 0.678174 5.58169 0.678174Z" fill="#FAA935"/>
</svg>
