<svg width="448" height="133" viewBox="0 0 448 133" fill="none" xmlns="http://www.w3.org/2000/svg">
<path fill-rule="evenodd" clip-rule="evenodd" d="M44.9427 17.3817C43.0116 19.1744 43.5659 18.9676 39.0817 17.6576C35.1487 16.4161 37.0122 16.0025 33.4959 18.002C30.3217 19.8648 25.1487 21.7275 22.7333 23.175C23.632 25.1761 31.3564 31.7282 33.2192 34.4181C32.528 34.7625 31.9768 35.0393 31.2188 35.3845C30.0457 35.9357 30.3217 35.9357 28.9426 35.1085C25.9075 33.3834 16.1811 27.866 14.25 27.0373C11.6993 28.1412 4.93801 31.5906 2.59485 31.4523C1.49013 31.3838 -0.304166 31.1079 0.0441197 29.7279C0.938935 26.3485 7.00906 24.485 10.9413 22.7607C12.5257 22.0719 12.1121 22.141 12.4573 20.4152C12.8732 18.5532 15.4939 5.03383 16.1143 4.34503C16.3903 4.13823 18.5282 3.24186 18.941 3.03429C19.1486 4.27661 19.2861 5.65576 19.3553 6.96572L20.0442 14.6218C20.0442 15.8633 20.2517 17.3117 20.4593 18.484C22.252 17.5877 24.0456 16.8289 25.9083 15.9325C35.1495 11.5175 33.4967 14.4842 35.6323 9.518C36.8762 6.75892 36.8762 5.10301 39.5653 5.51815C39.0817 11.0355 40.5969 14.485 44.9427 17.3817ZM42.9424 10.5535C41.9092 10.8987 42.3228 12.4839 43.4944 12.2087L45.0819 11.6575C46.0459 11.3807 45.7715 9.72558 44.5299 10.07L42.9424 10.5535ZM222.622 47.7307C223.517 48.4203 224.553 47.0404 223.655 46.4192L222.966 45.7996C222.001 45.0401 221.035 46.4884 221.863 47.1104L222.622 47.7307ZM217.862 43.9361C218.76 44.6265 219.793 43.2466 218.968 42.5578L217.587 41.523C216.691 40.8327 215.655 42.1426 216.553 42.833L217.862 43.9361ZM212.482 39.7295C213.309 40.4191 214.413 39.1091 213.516 38.4188L212.137 37.384C211.241 36.6952 210.136 38.0059 211.102 38.7639L212.482 39.7295ZM206.963 35.7973C207.928 36.4192 208.828 34.9709 207.928 34.3497L206.551 33.3834C205.514 32.7638 204.619 34.2121 205.584 34.8333L206.963 35.7973ZM201.308 31.935C202.273 32.5562 203.17 31.1086 202.273 30.4867L200.827 29.5903C199.86 28.9699 198.964 30.4183 199.86 31.0379L201.308 31.935ZM195.582 28.2796C196.48 28.9 197.445 27.5208 196.48 26.8313L194.962 25.9349C194.134 25.3829 193.101 26.7621 194.134 27.4524L195.582 28.2796ZM189.72 24.8309C190.756 25.3821 191.444 23.8646 190.549 23.3826L189.03 22.4855C187.997 22.0034 187.236 23.5202 188.203 24.003L189.72 24.8309ZM183.721 21.5883C184.754 22.0719 185.514 20.622 184.479 20.0708L182.963 19.312C181.926 18.7608 181.238 20.3468 182.202 20.8311L183.721 21.5883ZM177.579 18.554C178.615 19.0368 179.374 17.5193 178.34 17.0373L176.821 16.2777C175.856 15.7949 175.029 17.3125 176.062 17.7945L177.579 18.554ZM171.443 15.7265C172.548 16.1401 173.099 14.5534 172.063 14.139L170.547 13.4494C169.442 13.0366 168.821 14.6918 169.857 15.0362L171.443 15.7265ZM165.098 13.1742C166.132 13.5878 166.82 12.0019 165.718 11.5183L164.13 10.9671C163.098 10.5535 162.477 12.1395 163.511 12.5531L165.098 13.1742ZM158.751 10.8287C159.925 11.1739 160.269 9.44959 159.302 9.17438L157.647 8.62163C156.474 8.27724 156.13 9.93159 157.096 10.2768L158.751 10.8287ZM152.268 8.69005C153.372 9.03444 153.784 7.38009 152.75 7.1041L151.094 6.62132C149.991 6.27537 149.509 7.93128 150.613 8.20726L152.268 8.69005ZM145.715 6.89809C146.682 7.1733 147.301 5.58735 146.128 5.2414L144.475 4.82858C143.231 4.55337 143.025 6.27693 144.06 6.4845L145.715 6.89809ZM139.095 5.38133C140.197 5.58735 140.472 3.86224 139.439 3.65545L137.713 3.31105C136.61 3.10426 136.333 4.75939 137.438 4.9654L139.095 5.38133ZM132.403 4.07059C133.436 4.27738 133.853 2.6207 132.678 2.41468C132.127 2.2763 131.576 2.20789 130.953 2.06951C129.988 1.9319 129.507 3.58704 130.678 3.79384C131.301 3.86225 131.852 4.0014 132.403 4.07059ZM125.642 3.03506C126.818 3.17266 126.955 1.51753 125.85 1.38071L124.196 1.17235C123.023 1.03475 122.883 2.75985 123.989 2.82904L125.642 3.03506ZM118.884 2.34471C119.987 2.48309 120.194 0.759541 119.023 0.621159L117.298 0.483553C116.264 0.414363 115.988 2.06951 117.228 2.20711L118.884 2.34471ZM112.125 1.9319C113.299 1.9319 113.229 0.207571 112.194 0.207571L110.468 0.137606C109.297 0.137606 109.297 1.79352 110.399 1.86349L112.125 1.9319ZM105.295 1.7251C106.4 1.7251 106.47 0.0691908 105.295 0C104.744 0 104.123 0 103.572 0C102.536 0 102.399 1.7251 103.572 1.7251C104.193 1.7251 104.744 1.7251 105.295 1.7251ZM98.4684 1.86271C99.7099 1.79352 99.5023 0.0684094 98.3999 0.136823L96.7433 0.206788C95.5709 0.275979 95.7101 1.99953 96.8124 1.93112L98.4684 1.86271ZM91.7079 2.20711C92.8134 2.1387 92.7442 0.414361 91.5703 0.551965L89.8436 0.68957C88.7412 0.758761 88.8796 2.4139 89.9828 2.34393L91.7079 2.20711ZM84.9497 2.89746C85.9829 2.75986 85.9153 1.03475 84.7421 1.17235C84.1894 1.24154 83.5698 1.31074 83.0186 1.38071C81.9823 1.44912 82.0515 3.17344 83.2262 3.03506C83.7766 2.96665 84.3278 2.89746 84.9497 2.89746ZM78.1901 3.72464C79.3616 3.51785 78.948 1.86271 77.9148 2.06951L76.1897 2.34471C75.0874 2.5515 75.431 4.2082 76.465 4.00141L78.1901 3.72464ZM71.4288 4.89699C72.5343 4.6902 72.2575 3.03507 71.1536 3.24264L69.4316 3.51784C68.3945 3.72464 68.6705 5.44975 69.7752 5.2414L71.4288 4.89699ZM64.809 6.27693C65.843 6.07013 65.5678 4.3458 64.3954 4.62178L62.7395 4.96619C61.5687 5.31214 62.1192 6.89809 63.1531 6.62288L64.809 6.27693ZM58.1861 7.86209C59.2916 7.51847 58.8065 5.93253 57.7726 6.20773L56.0482 6.62211C54.945 6.9665 55.427 8.55245 56.5325 8.27724L58.1861 7.86209ZM51.6348 9.65639C52.6688 9.38118 52.2552 7.72449 51.1505 8.00203L49.4961 8.48403C48.4606 8.76001 48.8073 10.4843 49.9781 10.1392L51.6348 9.65639Z" fill="#FAA935"/>
<path fill-rule="evenodd" clip-rule="evenodd" d="M402.345 98.4798C403.4 98.211 403.104 96.5999 401.915 96.7888L400.292 97.2227C399.31 97.4284 399.463 99.0991 400.726 98.8462L402.345 98.4798ZM225.858 48.2884C225.015 47.5354 223.882 48.836 224.732 49.5211L225.374 50.1893C226.28 51.0172 227.35 49.6433 226.57 48.9626L225.858 48.2884ZM230.328 52.4203C229.483 51.6662 228.352 52.9671 229.125 53.7143L230.426 54.8471C231.27 55.601 232.398 54.3701 231.553 53.6161L230.328 52.4203ZM235.386 57.0083C234.612 56.2603 233.415 57.4861 234.26 58.2402L235.559 59.3728C236.403 60.1251 237.601 58.8985 236.692 58.072L235.386 57.0083ZM240.604 61.3328C239.687 60.6421 238.684 62.021 239.536 62.7061L240.838 63.7704C241.827 64.464 242.826 63.0849 241.909 62.3949L240.604 61.3328ZM245.962 65.5975C245.045 64.9076 244.045 66.2859 244.894 66.9716L246.27 67.9711C247.19 68.6604 248.189 67.2813 247.341 66.598L245.962 65.5975ZM251.406 69.6611C250.556 68.9769 249.493 70.2819 250.405 71.0401L251.854 72.0449C252.638 72.6557 253.769 71.3557 252.789 70.5918L251.406 69.6611ZM257 73.5284C256.007 72.903 255.21 74.3663 256.068 74.9124L257.518 75.918C258.513 76.4741 259.382 75.0169 258.453 74.4648L257 73.5284ZM262.747 77.2002C261.752 76.6426 260.888 78.0331 261.88 78.6584L263.337 79.5258C264.33 80.1511 265.132 78.6196 264.206 78.0662L262.747 77.2002ZM268.651 80.6747C267.653 80.1175 266.785 81.5756 267.781 82.1318L269.241 83.0002C270.168 83.5521 271.104 82.099 270.108 81.5429L268.651 80.6747ZM274.565 83.9424C273.493 83.4493 272.827 84.9916 273.83 85.4804L275.292 86.2788C276.364 86.7712 277.103 85.1657 276.096 84.7467L274.565 83.9424ZM280.706 86.951C279.706 86.4631 278.903 87.9945 279.967 88.5572L281.51 89.2228C282.51 89.7107 283.245 88.1743 282.244 87.6863L280.706 86.951ZM286.865 89.7535C285.72 89.3235 285.251 91.0181 286.195 91.3632L287.805 92.0352C288.95 92.4643 289.414 90.8395 288.475 90.4247L286.865 89.7535ZM293.174 92.3595C292.099 91.9355 291.567 93.5554 292.578 93.9061L294.195 94.5085C295.269 94.934 295.871 93.3176 294.791 92.9619L293.174 92.3595ZM299.58 94.625C298.635 94.28 297.902 95.8165 299.047 96.2472L300.665 96.7795C301.886 97.1448 302.217 95.4408 301.199 95.1582L299.58 94.625ZM306.071 96.6208C304.987 96.3349 304.587 98.0354 305.602 98.3171L307.299 98.7865C308.383 99.0732 308.781 97.4427 307.694 97.1566L306.071 96.6208ZM312.65 98.4165C311.634 98.1348 311.098 99.7567 312.254 100.048C312.794 100.226 313.339 100.335 313.95 100.518C314.902 100.726 315.503 99.1101 314.35 98.8184C313.734 98.7047 313.194 98.5257 312.65 98.4165ZM319.317 99.9426C318.154 99.7196 317.897 101.36 318.989 101.577L320.623 101.906C321.784 102.129 322.048 100.418 320.951 100.269L319.317 99.9426ZM326.006 101.124C324.917 100.906 324.585 102.61 325.742 102.833L327.453 103.096C328.478 103.241 328.875 101.61 327.648 101.382L326.006 101.124ZM332.718 102.029C331.547 101.944 331.49 103.669 332.523 103.744L334.239 103.94C335.407 104.025 335.528 102.374 334.433 102.224L332.718 102.029ZM339.514 102.734C338.412 102.653 338.222 104.3 339.388 104.455C339.938 104.495 340.557 104.54 341.107 104.58C342.14 104.656 342.402 102.945 341.232 102.86C340.614 102.815 340.064 102.774 339.514 102.734ZM346.333 103.095C345.089 103.073 345.171 104.809 346.275 104.821L347.932 104.872C349.107 104.889 349.094 103.16 347.989 103.148L346.333 103.095ZM353.1 103.245C351.993 103.233 351.936 104.957 353.117 104.906L354.849 104.895C355.953 104.906 355.936 103.245 354.831 103.234L353.1 103.245ZM359.891 103.05C358.85 103.112 358.792 104.837 359.972 104.785C360.528 104.757 361.151 104.733 361.706 104.703C362.745 104.711 362.801 102.986 361.62 103.038C361.066 103.066 360.511 103.095 359.891 103.05ZM366.693 102.718C365.509 102.839 365.801 104.52 366.846 104.389L368.587 104.24C369.702 104.115 369.48 102.437 368.433 102.568L366.693 102.718ZM373.522 102.042C372.404 102.168 372.559 103.839 373.675 103.712L375.413 103.564C376.462 103.433 376.313 101.692 375.196 101.819L373.522 102.042ZM380.224 101.149C379.178 101.28 379.327 103.02 380.516 102.83L382.193 102.607C383.386 102.348 382.952 100.726 381.901 100.925L380.224 101.149ZM386.945 100.052C385.818 100.314 386.186 101.931 387.237 101.732L388.987 101.444C390.112 101.181 389.747 99.5644 388.625 99.7582L386.945 100.052ZM393.61 98.7402C392.559 98.9392 392.85 100.622 393.972 100.425L395.658 100.066C396.71 99.8658 396.491 98.1208 395.298 98.3796L393.61 98.7402Z" fill="#FAA935"/>
<path fill-rule="evenodd" clip-rule="evenodd" d="M406.59 95.5535C405.556 95.8987 405.97 97.4839 407.142 97.2087L408.729 96.6575C409.693 96.3807 409.419 94.7256 408.177 95.07L406.59 95.5535ZM586.269 132.731C587.164 133.42 588.2 132.04 587.302 131.419L586.613 130.8C585.648 130.04 584.682 131.488 585.51 132.11L586.269 132.731ZM581.509 128.936C582.407 129.626 583.44 128.247 582.615 127.558L581.234 126.523C580.338 125.833 579.302 127.143 580.2 127.833L581.509 128.936ZM576.13 124.73C576.956 125.419 578.061 124.109 577.163 123.419L575.784 122.384C574.888 121.695 573.783 123.006 574.75 123.764L576.13 124.73ZM570.611 120.797C571.575 121.419 572.475 119.971 571.575 119.35L570.199 118.383C569.161 117.764 568.267 119.212 569.231 119.833L570.611 120.797ZM564.956 116.935C565.92 117.556 566.817 116.109 565.92 115.487L564.474 114.59C563.507 113.97 562.611 115.418 563.507 116.038L564.956 116.935ZM559.229 113.28C560.127 113.9 561.092 112.521 560.127 111.831L558.609 110.935C557.781 110.383 556.748 111.762 557.782 112.452L559.229 113.28ZM553.367 109.831C554.404 110.382 555.092 108.865 554.196 108.383L552.677 107.485C551.644 107.003 550.883 108.52 551.851 109.003L553.367 109.831ZM547.368 106.588C548.401 107.072 549.161 105.622 548.126 105.071L546.61 104.312C545.574 103.761 544.886 105.347 545.85 105.831L547.368 106.588ZM541.226 103.554C542.263 104.037 543.021 102.519 541.987 102.037L540.468 101.278C539.504 100.795 538.676 102.312 539.71 102.794L541.226 103.554ZM535.09 100.727C536.195 101.14 536.746 99.5534 535.711 99.139L534.195 98.4494C533.089 98.0366 532.469 99.6918 533.504 100.036L535.09 100.727ZM528.745 98.1742C529.779 98.5878 530.468 97.0019 529.365 96.5183L527.778 95.9671C526.745 95.5535 526.124 97.1395 527.158 97.5531L528.745 98.1742ZM522.398 95.8288C523.572 96.1739 523.916 94.4496 522.949 94.1744L521.295 93.6216C520.121 93.2772 519.777 94.9316 520.743 95.2768L522.398 95.8288ZM515.916 93.69C517.019 94.0344 517.432 92.3801 516.398 92.1041L514.741 91.6213C513.639 91.2754 513.157 92.9313 514.26 93.2073L515.916 93.69ZM509.362 91.8981C510.329 92.1733 510.949 90.5874 509.775 90.2414L508.122 89.8286C506.878 89.5534 506.672 91.2769 507.708 91.4845L509.362 91.8981ZM502.742 90.3813C503.845 90.5873 504.119 88.8622 503.086 88.6554L501.36 88.3111C500.258 88.1043 499.98 89.7594 501.085 89.9654L502.742 90.3813ZM496.05 89.0706C497.083 89.2774 497.5 87.6207 496.325 87.4147C495.774 87.2763 495.223 87.2079 494.6 87.0695C493.635 86.9319 493.154 88.587 494.325 88.7938C494.948 88.8623 495.499 89.0014 496.05 89.0706ZM489.29 88.0351C490.465 88.1727 490.602 86.5175 489.497 86.3807L487.844 86.1724C486.67 86.0348 486.531 87.7598 487.636 87.829L489.29 88.0351ZM482.531 87.3447C483.634 87.4831 483.841 85.7595 482.67 85.6212L480.945 85.4836C479.912 85.4144 479.635 87.0695 480.876 87.2071L482.531 87.3447ZM475.772 86.9319C476.946 86.9319 476.877 85.2076 475.841 85.2076L474.115 85.1376C472.944 85.1376 472.944 86.7935 474.047 86.8635L475.772 86.9319ZM468.942 86.7251C470.047 86.7251 470.117 85.0692 468.942 85C468.391 85 467.771 85 467.219 85C466.183 85 466.046 86.7251 467.219 86.7251C467.84 86.7251 468.391 86.7251 468.942 86.7251ZM462.116 86.8627C463.357 86.7935 463.15 85.0684 462.047 85.1368L460.39 85.2068C459.218 85.276 459.357 86.9995 460.46 86.9311L462.116 86.8627ZM455.355 87.2071C456.461 87.1387 456.391 85.4144 455.217 85.552L453.491 85.6896C452.388 85.7588 452.527 87.4139 453.63 87.3439L455.355 87.2071ZM448.597 87.8975C449.63 87.7599 449.562 86.0348 448.389 86.1724C447.837 86.2415 447.217 86.3107 446.666 86.3807C445.629 86.4491 445.699 88.1734 446.873 88.0351C447.424 87.9666 447.975 87.8975 448.597 87.8975ZM441.837 88.7246C443.009 88.5178 442.595 86.8627 441.562 87.0695L439.837 87.3447C438.735 87.5515 439.078 89.2082 440.112 89.0014L441.837 88.7246ZM435.076 89.897C436.181 89.6902 435.905 88.0351 434.801 88.2426L433.079 88.5178C432.042 88.7246 432.318 90.4498 433.422 90.2414L435.076 89.897ZM428.456 91.2769C429.49 91.0701 429.215 89.3458 428.043 89.6218L426.387 89.9662C425.216 90.3121 425.766 91.8981 426.8 91.6229L428.456 91.2769ZM421.833 92.8621C422.939 92.5185 422.454 90.9325 421.42 91.2077L419.695 91.6221C418.592 91.9665 419.074 93.5525 420.18 93.2772L421.833 92.8621ZM415.282 94.6564C416.316 94.3812 415.902 92.7245 414.798 93.002L413.143 93.484C412.108 93.76 412.454 95.4843 413.625 95.1392L415.282 94.6564Z" fill="#FAA935"/>
</svg>
