<svg width="35" height="35" viewBox="0 0 35 35" fill="none" xmlns="http://www.w3.org/2000/svg">
<path d="M17.5 0C7.83398 0 0 7.83398 0 17.5C0 27.166 7.83398 35 17.5 35C27.166 35 35 27.166 35 17.5C35 7.83398 27.166 0 17.5 0ZM24.4863 14.7793C24.4932 14.9297 24.4932 15.0869 24.4932 15.2441C24.4932 19.9951 20.877 25.4775 14.2598 25.4775C12.2295 25.4775 10.3359 24.8828 8.75 23.8643C9.03027 23.8984 9.31738 23.9121 9.61133 23.9121C11.293 23.9121 12.8447 23.3379 14.0752 22.374C12.5029 22.3467 11.1699 21.3076 10.7188 19.8789C10.9375 19.9199 11.1631 19.9404 11.3955 19.9404C11.7236 19.9404 12.0449 19.8994 12.3457 19.8105C10.6982 19.4824 9.46094 18.0264 9.46094 16.2832V16.2422C9.94629 16.5088 10.5 16.6729 11.0879 16.6934C10.124 16.0508 9.48828 14.9434 9.48828 13.6992C9.48828 13.043 9.66602 12.4209 9.97363 11.8877C11.751 14.0684 14.3965 15.4971 17.3838 15.6475C17.3223 15.3877 17.2881 15.1143 17.2881 14.8271C17.2881 12.8447 18.9014 11.2314 20.8838 11.2314C21.916 11.2314 22.8525 11.6689 23.5088 12.3662C24.3291 12.2021 25.0947 11.9082 25.792 11.4912C25.5254 12.332 24.9512 13.0361 24.2129 13.4805C24.9375 13.3916 25.6348 13.2002 26.2773 12.9131C25.7988 13.6377 25.1904 14.2666 24.4863 14.7793Z" fill="#FAA935"/>
</svg>
