<svg width="35" height="35" viewBox="0 0 35 35" fill="none" xmlns="http://www.w3.org/2000/svg">
<path d="M15.1689 20.8701L20.8975 17.5068L15.1689 14.1436V20.8701Z" fill="#FAA935"/>
<path d="M17.5 0C7.83398 0 0 7.83398 0 17.5C0 27.166 7.83398 35 17.5 35C27.166 35 35 27.166 35 17.5C35 7.83398 27.166 0 17.5 0ZM26.25 20.6309C26.25 23.6455 23.2354 23.6455 23.2354 23.6455H11.7646C8.75 23.6455 8.75 20.6309 8.75 20.6309V14.376C8.75 11.3613 11.7646 11.3613 11.7646 11.3613H23.2354C26.25 11.3613 26.25 14.376 26.25 14.376V20.6309Z" fill="#FAA935"/>
</svg>
